<?xml version="1.0" standalone="no"?>
<!DOCTYPE svg PUBLIC "-//W3C//DTD SVG 20010904//EN"
 "http://www.w3.org/TR/2001/REC-SVG-20010904/DTD/svg10.dtd">
<svg version="1.0" xmlns="http://www.w3.org/2000/svg"
 width="1000.000000pt" height="513.000000pt" viewBox="0 0 1000.000000 513.000000"
 preserveAspectRatio="xMidYMid meet">
 <title>Cenit IO - Open iPaaS | Logo</title>

<g transform="translate(0.000000,513.000000) scale(0.100000,-0.100000)"
fill="#000000" stroke="none">
<path d="M4857 5105 c-219 -44 -395 -217 -428 -421 -23 -141 33 -305 142 -413
56 -56 172 -126 237 -143 l22 -6 0 -1371 c0 -1347 0 -1371 -19 -1371 -18 0
-126 -37 -207 -71 -38 -15 86 -119 -962 809 -559 495 -772 690 -768 701 3 9
17 48 30 86 79 220 -33 475 -258 585 -335 165 -738 22 -846 -300 -19 -55 -21
-81 -18 -163 5 -90 8 -104 46 -181 73 -148 218 -255 392 -292 105 -22 243 -15
337 18 l72 26 183 -162 c1178 -1041 1513 -1340 1516 -1352 2 -8 -7 -28 -19
-45 -12 -17 -34 -63 -50 -103 l-28 -71 -1543 -2 -1543 -3 -35 67 c-109 211
-384 329 -650 279 -289 -54 -482 -300 -442 -563 30 -190 163 -339 369 -410 67
-23 95 -27 193 -27 129 -1 216 20 323 76 70 38 171 142 212 221 l30 57 1545 0
1545 0 19 -52 c64 -186 221 -346 415 -421 163 -63 326 -81 481 -51 215 40 391
143 495 288 44 62 115 199 115 223 0 11 298 13 1549 13 1514 0 1550 0 1556
-19 11 -37 82 -136 130 -183 58 -56 133 -98 235 -130 107 -33 274 -32 379 2
141 45 274 156 330 274 143 299 -49 636 -399 702 -266 50 -542 -69 -651 -280
l-34 -66 -1543 3 -1543 2 -28 71 c-16 40 -38 86 -50 103 -12 17 -21 37 -19 45
3 12 336 310 1518 1354 129 114 189 160 200 156 127 -56 287 -70 413 -35 176
48 295 140 369 283 34 66 48 130 48 219 0 273 -260 499 -575 499 -398 0 -673
-350 -539 -685 l26 -67 -33 -33 c-27 -26 -1304 -1157 -1602 -1419 -68 -59 -69
-59 -100 -47 -82 34 -190 71 -208 71 -19 0 -19 24 -19 1371 l0 1371 22 6 c13
3 58 23 102 45 147 74 239 195 272 361 32 153 -15 296 -136 417 -140 140 -354
197 -573 154z"/>
</g>
</svg>
